<svg width="16" height="16" viewBox="0 0 16 16" fill="none" xmlns="http://www.w3.org/2000/svg">
<path fill-rule="evenodd" clip-rule="evenodd" d="M15 7.99965C15 7.86705 14.9473 7.73987 14.8536 7.6461C14.7598 7.55233 14.6326 7.49965 14.5 7.49965H2.707L5.854 4.35366C5.94789 4.25977 6.00063 4.13243 6.00063 3.99966C6.00063 3.86688 5.94789 3.73954 5.854 3.64565C5.76011 3.55177 5.63278 3.49902 5.5 3.49902C5.36722 3.49902 5.23989 3.55177 5.146 3.64565L1.146 7.64565C1.09944 7.6921 1.06249 7.74728 1.03729 7.80802C1.01208 7.86877 0.999106 7.93389 0.999106 7.99965C0.999106 8.06542 1.01208 8.13054 1.03729 8.19129C1.06249 8.25203 1.09944 8.30721 1.146 8.35365L5.146 12.3537C5.23989 12.4475 5.36722 12.5003 5.5 12.5003C5.63278 12.5003 5.76011 12.4475 5.854 12.3537C5.94789 12.2598 6.00063 12.1324 6.00063 11.9997C6.00063 11.8669 5.94789 11.7395 5.854 11.6457L2.707 8.49965H14.5C14.6326 8.49965 14.7598 8.44698 14.8536 8.35321C14.9473 8.25944 15 8.13226 15 7.99965Z" fill="currentColor" stroke="currentColor" stroke-width="0.3"/>
</svg>
