<svg width="16" height="16" viewBox="0 0 16 16" fill="none" xmlns="http://www.w3.org/2000/svg">
<path fill-rule="evenodd" clip-rule="evenodd" d="M1 7.99965C1 7.86705 1.05268 7.73987 1.14645 7.6461C1.24021 7.55233 1.36739 7.49965 1.5 7.49965H13.293L10.146 4.35366C10.0521 4.25977 9.99937 4.13243 9.99937 3.99966C9.99937 3.86688 10.0521 3.73954 10.146 3.64565C10.2399 3.55177 10.3672 3.49902 10.5 3.49902C10.6328 3.49902 10.7601 3.55177 10.854 3.64565L14.854 7.64565C14.9006 7.6921 14.9375 7.74728 14.9627 7.80802C14.9879 7.86877 15.0009 7.93389 15.0009 7.99965C15.0009 8.06542 14.9879 8.13054 14.9627 8.19129C14.9375 8.25203 14.9006 8.30721 14.854 8.35365L10.854 12.3537C10.7601 12.4475 10.6328 12.5003 10.5 12.5003C10.3672 12.5003 10.2399 12.4475 10.146 12.3537C10.0521 12.2598 9.99937 12.1324 9.99937 11.9997C9.99937 11.8669 10.0521 11.7395 10.146 11.6457L13.293 8.49965H1.5C1.36739 8.49965 1.24021 8.44698 1.14645 8.35321C1.05268 8.25944 1 8.13226 1 7.99965Z" fill="currentColor" stroke="currentColor" stroke-width="0.3"/>
</svg>
